<svg xmlns="http://www.w3.org/2000/svg" xmlns:xlink="http://www.w3.org/1999/xlink" width="794.506" height="125" viewBox="0 0 794.50602 124.99999" enable-background="new"><defs><linearGradient id="a"><stop offset="0" stop-color="#fff"/><stop offset="1" stop-color="#e6e6e6"/></linearGradient><filter id="b" color-interpolation-filters="sRGB"><feBlend mode="screen" in2="BackgroundImage"/></filter><radialGradient xlink:href="#a" id="c" cx="2233.905" cy="193.654" fx="2233.905" fy="193.654" r="75.471" gradientUnits="userSpaceOnUse"/></defs><g transform="translate(-2069.952 -506.239)" filter="url(#b)"><rect width="125" height="125" x="2069.952" y="506.239" rx="16" ry="16" fill="#555"/><rect width="148.942" height="148.942" x="2159.433" y="119.183" rx="8.855" ry="8.855" fill="url(#c)" stroke="#0e3c7a" stroke-width="2" stroke-linecap="round" stroke-linejoin="round" stroke-miterlimit="1"/><text style="line-height:125%;-inkscape-font-specification:'Roboto Light'" x="2145.507" y="56.963" font-weight="300" font-size="131.62" font-family="Roboto" letter-spacing="0" word-spacing="0" fill="#0e3c7a"><tspan x="2145.507" y="56.963" style="-inkscape-font-specification:'Roboto Light'">Sectional</tspan></text><path d="M2218.904 213.654v40h68.643a6.343 6.343 0 0 0 6.357-6.357v-33.643h-75z" fill="#1869d4"/><path d="M2180.66 133.654a6.742 6.742 0 0 0-6.756 6.756V246.9a6.74 6.74 0 0 0 6.756 6.754h33.244v-120h-33.244z" fill="#0e3c7a"/><g transform="translate(-161.046 -198.539)"><rect width="80" height="18.742" x="2216.408" y="216.787" rx="0" ry="0" fill="#1869d4"/><rect ry="0" rx="0" y="216.787" x="2216.408" height="40" width="38.576" fill="#1869d4"/><rect ry="0" rx="0" y="136.787" x="2196.275" height="120" width="20.132" fill="#0e3c7a"/><rect width="40" height="120" x="2176.408" y="136.787" rx="6.755" ry="6.755" fill="#0e3c7a"/><rect width="80" height="40" x="2216.408" y="216.787" rx="6.358" ry="6.358" fill="#1869d4"/></g><text y="249.181" x="2517.42" style="line-height:125%;-inkscape-font-specification:'Roboto Light'" font-weight="300" font-size="131.62" font-family="Roboto" letter-spacing="0" word-spacing="0" fill="#0e3c78"><tspan style="-inkscape-font-specification:'Roboto Light'" y="249.181" x="2517.42">Sectional</tspan></text><path d="M2442.34 130.467v75h40v-60c0-8.31-6.69-15-15-15h-25z" fill="#1869d4"/><path d="M2362.34 210.467v25c0 8.31 6.69 15 15 15h90c8.31 0 15-6.69 15-15v-25h-120z" fill="#0e3c7a"/><text y="455.673" x="2242.092" style="line-height:125%;-inkscape-font-specification:'Roboto Light'" font-weight="300" font-size="157.242" font-family="Roboto" letter-spacing="0" word-spacing="0" fill="#e0efff"><tspan style="-inkscape-font-specification:'Roboto Light'" y="455.673" x="2242.092">Sectional</tspan></text><path d="M2087.452 337.208c-8.31 0-15 6.69-15 15v65h80v-80h-65z" fill="#e0efff"/><path d="M2152.452 337.209v80h40v-65c0-8.31-6.69-15-15-15h-25z" fill="#1869d4"/><path d="M2072.452 417.208v25c0 8.31 6.69 15 15 15h90c8.31 0 15-6.69 15-15v-25h-120z" fill="#0e3c7a"/><text style="line-height:125%;-inkscape-font-specification:'Roboto Light'" x="2242.092" y="629.703" font-weight="300" font-size="157.242" font-family="Roboto" letter-spacing="0" word-spacing="0" fill="#555"><tspan x="2242.092" y="629.703" style="-inkscape-font-specification:'Roboto Light'">Sectional</tspan></text><path d="M2087.452 508.739c-8.31 0-15 6.69-15 15v65h80v-80h-65z" fill="#e0efff"/><path d="M2152.452 508.74v80h40v-65.001c0-8.31-6.69-15-15-15h-25z" fill="#1869d4"/><path d="M2072.452 588.739v25c0 8.31 6.69 15 15 15h90c8.31 0 15-6.69 15-15v-25h-120z" fill="#0e3c7a"/></g></svg>